<svg width="19" height="19" viewBox="0 0 19 19" fill="none" xmlns="http://www.w3.org/2000/svg">
<rect width="19" height="19" fill="white"/>
<path d="M4.56173 17C5.51411 17 7.4612 16.0263 8.8933 14.9952C13.8104 15.1313 17.5 12.2601 17.5 8.50835C17.5 4.90692 13.9444 2 9.5 2C5.05556 2 1.5 4.90692 1.5 8.50835C1.5 10.8568 2.98148 12.9403 5.21076 13.9857C4.8933 14.6158 4.30071 15.4606 3.98325 15.8831C3.60935 16.3771 3.8351 17 4.56173 17ZM5.30247 15.8115C5.24603 15.8329 5.22487 15.79 5.26014 15.747C5.6552 15.253 6.21958 14.5084 6.45944 14.043C6.65697 13.6778 6.60758 13.3484 6.15608 13.1337C3.94092 12.0883 2.67108 10.42 2.67108 8.50835C2.67108 5.57995 5.69753 3.18854 9.5 3.18854C13.3095 3.18854 16.336 5.57995 16.336 8.50835C16.336 11.4439 13.3095 13.8353 9.5 13.8353C9.35891 13.8353 9.14021 13.8282 8.85802 13.821C8.56173 13.8138 8.33598 13.9141 8.0679 14.1289C7.20018 14.7661 5.94444 15.5465 5.30247 15.8115Z" fill="#0E0F0F" fill-opacity="0.6"/>
</svg>
