<svg width="19" height="19" viewBox="0 0 19 19" fill="none" xmlns="http://www.w3.org/2000/svg">
<rect width="19" height="19" fill="white"/>
<path d="M11.5219 11.9352V13.0152H14.6798C16.7558 13.0152 18 11.7742 18 10.1507C18 8.79562 17.1818 7.68202 15.8632 7.15206C15.8767 4.16011 13.706 2 10.9403 2C9.1078 2 7.8027 2.97272 6.99125 4.14669C5.45624 3.73748 3.51551 4.91816 3.4817 6.80322C1.95346 7.03801 1 8.27907 1 9.86225C1 11.6064 2.31862 13.0152 4.53659 13.0152H7.53898V11.9352H4.52983C2.92721 11.9352 2.0887 11.0161 2.0887 9.86225C2.0887 8.58095 2.90692 7.62835 4.34049 7.62835C4.43516 7.62835 4.46897 7.57469 4.46897 7.48748C4.46897 5.428 5.9634 4.85778 7.3564 5.26029C7.43755 5.28712 7.48488 5.2737 7.52546 5.19991C8.18138 4.03936 9.18894 3.08005 10.9403 3.08005C13.1583 3.08005 14.6933 4.82424 14.8083 6.82335C14.8286 7.12522 14.8083 7.48748 14.7812 7.80277C14.7745 7.88998 14.8083 7.94365 14.8894 7.95707C16.1201 8.2254 16.9113 8.99016 16.9113 10.1507C16.9113 11.1838 16.1539 11.9352 14.673 11.9352H11.5219ZM9.53381 17C9.66905 17 9.77725 16.9463 9.91925 16.8189L12.2049 14.699C12.313 14.6051 12.3671 14.4911 12.3671 14.3435C12.3671 14.0751 12.1508 13.8739 11.8735 13.8739C11.745 13.8739 11.6098 13.9343 11.5084 14.0349L10.4805 15.0546L10.0274 15.5242L10.068 14.5246V8.76878C10.068 8.48703 9.82458 8.24553 9.53381 8.24553C9.24304 8.24553 8.99284 8.48703 8.99284 8.76878V14.5246L9.03341 15.5309L8.58035 15.0546L7.55251 14.0349C7.45107 13.9343 7.30907 13.8739 7.18059 13.8739C6.89658 13.8739 6.69372 14.0751 6.69372 14.3435C6.69372 14.4911 6.74781 14.6051 6.85601 14.699L9.14161 16.8189C9.28361 16.9463 9.39181 17 9.53381 17Z" fill="#0E0F0F" fill-opacity="0.6"/>
</svg>
