<svg width="20" height="20" viewBox="0 0 20 20" fill="none" xmlns="http://www.w3.org/2000/svg">
<path d="M10.4 0.799805C5.32339 0.799805 1.19995 4.92324 1.19995 9.9998C1.19995 15.0764 5.32339 19.1998 10.4 19.1998C14.3671 19.1998 16.789 17.3748 18.0499 15.1123C19.3109 12.8498 19.4703 10.192 19.0875 8.3748L19.0124 8.0623H18.6999L10.4 8.0498H9.99995V12.2123H14.575C13.8843 13.8123 12.4781 14.9123 10.4 14.9123C7.68433 14.9123 5.48745 12.7154 5.48745 9.9998C5.48745 7.28418 7.68433 5.0873 10.4 5.0873C11.6203 5.0873 12.7281 5.53887 13.5875 6.2748L13.875 6.5123L16.6125 3.7748L16.9 3.4748L16.5999 3.1998C14.9656 1.71074 12.7843 0.799805 10.4 0.799805ZM10.4 1.5998C12.4296 1.5998 14.2609 2.34199 15.7125 3.5373L13.7875 5.4623C12.8359 4.75137 11.6796 4.2873 10.4 4.2873C7.25151 4.2873 4.68745 6.85137 4.68745 9.9998C4.68745 13.1482 7.25151 15.7123 10.4 15.7123C13.0203 15.7123 14.9046 14.1061 15.575 11.9248L15.7375 11.4123H10.8V8.8498L18.3375 8.8623C18.6031 10.4764 18.4265 12.7936 17.35 14.7248C16.2062 16.7748 14.1281 18.3998 10.4 18.3998C5.75464 18.3998 1.99995 14.6436 1.99995 9.9998C1.99995 5.35605 5.75464 1.5998 10.4 1.5998Z" fill="#0E0F0F" fill-opacity="0.6"/>
</svg>
