<svg width="19" height="19" viewBox="0 0 19 19" fill="none" xmlns="http://www.w3.org/2000/svg">
<rect width="19" height="19" fill="white"/>
<path d="M1.5 6.93464C1.5 10.415 4.37613 13.8382 8.91994 16.7794C9.08912 16.8856 9.33082 17 9.5 17C9.66918 17 9.91088 16.8856 10.0881 16.7794C14.6239 13.8382 17.5 10.415 17.5 6.93464C17.5 4.04248 15.5423 2 12.932 2C11.4416 2 10.2331 2.71895 9.5 3.8219C8.78298 2.72712 7.55841 2 6.06798 2C3.4577 2 1.5 4.04248 1.5 6.93464ZM2.79708 6.93464C2.79708 4.76144 4.18278 3.31536 6.05186 3.31536C7.56647 3.31536 8.43656 4.27124 8.95217 5.08824C9.16969 5.41503 9.30665 5.5049 9.5 5.5049C9.69335 5.5049 9.8142 5.40686 10.0478 5.08824C10.6037 4.28758 11.4416 3.31536 12.9481 3.31536C14.8172 3.31536 16.2029 4.76144 16.2029 6.93464C16.2029 9.97386 13.0368 13.25 9.66918 15.5212C9.58862 15.5784 9.53223 15.6193 9.5 15.6193C9.46777 15.6193 9.41138 15.5784 9.33887 15.5212C5.96324 13.25 2.79708 9.97386 2.79708 6.93464Z" fill="#0E0F0F" fill-opacity="0.6"/>
</svg>
