<svg width="60" height="52" viewBox="0 0 60 52" fill="none" xmlns="http://www.w3.org/2000/svg">
<path d="M7.67101 47H52.329C57.4104 47 60 44.4368 60 39.3597V13.5553C60 8.47824 57.4104 5.9397 52.329 5.9397H45.342C43.4121 5.9397 42.8257 5.54536 41.7264 4.31306L39.772 2.09491C38.5505 0.739381 37.3046 0 34.7883 0H25.0407C22.5244 0 21.2785 0.739381 20.057 2.09491L18.1026 4.31306C17.0033 5.52071 16.3925 5.9397 14.487 5.9397H7.67101C2.56515 5.9397 0 8.47824 0 13.5553V39.3597C0 44.4368 2.56515 47 7.67101 47ZM7.71987 43.032C5.32573 43.032 3.93322 41.7257 3.93322 39.1626V13.7771C3.93322 11.2139 5.32573 9.90771 7.71987 9.90771H15.4642C17.6629 9.90771 18.8599 9.48873 20.0814 8.10855L21.987 5.9397C23.3795 4.36235 24.1124 3.96801 26.2622 3.96801H33.5668C35.7166 3.96801 36.4495 4.36235 37.842 5.9397L39.7476 8.10855C40.9691 9.48873 42.1661 9.90771 44.3648 9.90771H52.2557C54.6743 9.90771 56.0668 11.2139 56.0668 13.7771V39.1626C56.0668 41.7257 54.6743 43.032 52.2557 43.032H7.71987ZM30 39.483C37.3778 39.483 43.3143 33.5186 43.3143 26.0016C43.3143 18.5092 37.4023 12.5448 30 12.5448C22.5977 12.5448 16.6612 18.5092 16.6612 26.0016C16.6612 33.5186 22.5977 39.483 30 39.483ZM44.316 16.9318C44.316 18.6571 45.7329 20.0126 47.3941 20.0126C49.0309 19.9879 50.4235 18.6324 50.4235 16.9318C50.4235 15.3052 49.0309 13.8757 47.3941 13.8757C45.7329 13.8757 44.316 15.3052 44.316 16.9318ZM30 35.7368C24.6987 35.7368 20.3502 31.4237 20.3502 26.0016C20.3502 20.6041 24.6743 16.2664 30 16.2664C35.3257 16.2664 39.6254 20.6041 39.6254 26.0016C39.6254 31.4237 35.3257 35.7368 30 35.7368Z" fill="#0E0F0F" fill-opacity="0.6"/>
</svg>
