<svg width="30" height="30" viewBox="0 0 30 30" fill="none" xmlns="http://www.w3.org/2000/svg">
<path d="M29.9582 7.6679C29.9401 7.56788 29.9128 7.46329 29.881 7.36327C29.8538 7.27696 29.8219 7.19065 29.781 7.1044C29.7718 7.07692 29.7584 7.05431 29.7446 7.02706C29.7309 6.99501 29.7128 6.95886 29.6945 6.92704C29.5764 7.16786 29.4174 7.39052 29.2175 7.59056C28.722 8.08614 28.0719 8.33148 27.4219 8.33148C26.8719 8.33148 26.3218 8.15435 25.8673 7.7998C25.7994 8.34062 25.5585 8.86778 25.1402 9.28591C24.6449 9.78149 23.9947 10.0314 23.3449 10.0314C23.1901 10.0314 23.0356 10.0179 22.8812 9.99067L23.0675 9.78601L23.2586 9.57249C23.2859 9.57706 23.3177 9.57706 23.3449 9.57706C23.904 9.57706 24.4266 9.35897 24.8176 8.96347C25.154 8.63159 25.3584 8.20884 25.4131 7.7453L25.5083 6.94515L26.1446 7.44067C26.5085 7.72245 26.9631 7.8772 27.422 7.8772C27.9812 7.8772 28.5037 7.66339 28.8949 7.26794C29.054 7.10886 29.1856 6.9271 29.2856 6.72712L29.3994 6.49521C29.3584 6.44071 29.3085 6.39085 29.2584 6.34069C28.9313 6.01802 28.5401 5.79987 28.1268 5.68632C28.2994 5.58636 28.463 5.45886 28.6129 5.30892C29.604 4.3181 29.604 2.71356 28.6129 1.7228C27.6221 0.731982 26.0176 0.731982 25.0222 1.7228C24.8769 1.86812 24.7494 2.03183 24.645 2.20433C24.5312 1.79077 24.3131 1.40007 23.9904 1.0771C22.9993 0.0862793 21.3951 0.0862793 20.4041 1.0771C19.486 1.99081 19.4178 3.43187 20.1951 4.42702C19.6497 4.49522 19.1223 4.73628 18.7042 5.1544C18.6314 5.22718 18.5677 5.29972 18.5087 5.37712L18.627 5.59983C18.7225 5.77263 18.8449 5.93628 18.9859 6.08159C19.3814 6.47253 19.904 6.69062 20.4631 6.69062C20.5631 6.69062 20.6677 6.68147 20.7724 6.668L20.8951 6.64989L20.6223 6.91333L20.3906 7.14062C19.7634 7.1269 19.145 6.87718 18.668 6.3997C18.4907 6.22257 18.3405 6.0271 18.227 5.81353C18.1906 5.88606 18.1588 5.9589 18.1315 6.03167C18.1181 6.07263 18.0997 6.11335 18.0906 6.15437C18.0679 6.21343 18.0496 6.27706 18.0361 6.34063C18.0315 6.35435 18.0269 6.36788 18.0269 6.38159C18.0043 6.47247 17.9905 6.56335 17.9814 6.65423C17.9042 7.31774 18.086 8.00441 18.5313 8.54956C18.5861 8.61319 18.6405 8.67706 18.7042 8.74046C18.7133 8.7496 18.7225 8.75874 18.7314 8.76331L18.5677 8.92239L18.4043 9.08142L18.0905 9.39044C17.136 8.63148 15.9771 8.24968 14.8225 8.25407C13.368 8.24974 11.9089 8.85419 10.8681 10.045L1.31842 20.9403C0.413619 21.963 -0.00427203 23.1945 6.39039e-05 24.3765C6.39039e-05 25.7445 0.536548 27.0535 1.4546 28.0354C2.37288 29.0171 3.70911 29.6672 5.23618 29.6672C5.4184 29.6672 5.6001 29.658 5.78637 29.6399C6.82712 29.5353 7.80903 29.1263 8.61352 28.4625L19.8223 19.2221C21.0857 18.1766 21.7358 16.6675 21.7358 15.1631C21.7358 14.1496 21.4406 13.1267 20.8493 12.2406L21.1949 11.8631L21.3448 11.6905L21.4993 11.5223C21.522 11.5587 21.5583 11.595 21.5902 11.6269C22.0857 12.1222 22.7355 12.3678 23.3858 12.3678C24.0358 12.3678 24.6856 12.1222 25.1811 11.6269C25.5993 11.2087 25.84 10.6814 25.9037 10.1406C26.3628 10.495 26.9126 10.6722 27.4628 10.6722C28.1129 10.6722 28.7629 10.4268 29.2582 9.93132C29.3218 9.86769 29.3765 9.80429 29.4308 9.74042C29.8446 9.23136 30.0355 8.59966 29.9946 7.98144C29.9902 7.92694 29.9857 7.87708 29.9808 7.82241C29.9719 7.7722 29.9673 7.72233 29.9582 7.6679ZM20.8358 10.904L20.6724 11.0858L20.2721 11.5268C20.2494 11.4996 20.2222 11.4723 20.1949 11.4449L18.7585 10.0087L19.154 9.6223L19.3314 9.4495L19.504 9.28151L19.5088 9.27694L20.8542 7.96339L21.054 7.76335L21.2675 7.55897L23.6493 5.22712C23.7083 5.16782 23.7766 5.14058 23.8402 5.14058C24.0222 5.14058 24.1767 5.34976 24.1448 5.64067L23.9496 7.29067C23.9357 7.39509 23.8993 7.49048 23.8494 7.56325L22.295 9.28579L22.1358 9.45864L21.9813 9.63149L21.0085 10.7086L20.8358 10.904ZM1.81805 24.3765C1.81805 23.6082 2.07282 22.8354 2.68184 22.1401L12.2363 11.2405C12.9224 10.4632 13.8677 10.0723 14.8224 10.0723C15.7042 10.0723 16.5768 10.3996 17.254 11.0769L18.9086 12.7312C19.5858 13.4084 19.9177 14.2812 19.9177 15.163C19.9129 16.1539 19.4948 17.1312 18.6678 17.8174L7.45911 27.058C6.93176 27.4946 6.28629 27.7626 5.60907 27.8308C5.4818 27.8399 5.35887 27.8491 5.23624 27.8491C4.22274 27.8445 3.391 27.4355 2.78192 26.7898C2.17278 26.1446 1.81805 25.2627 1.81805 24.3765Z" fill="#0E0F0F" fill-opacity="0.6"/>
<path d="M14.6224 15.8352C14.8405 16.0579 15.2042 16.0579 15.4223 15.8352C15.6453 15.6125 15.6453 15.2534 15.4223 15.0307L12.8907 12.4991C12.668 12.2764 12.3089 12.2764 12.0862 12.4991C11.8681 12.7218 11.8681 13.0809 12.0862 13.3036L14.6224 15.8352Z" fill="#0E0F0F" fill-opacity="0.6"/>
<path d="M9.59541 22.4854C9.81789 22.708 10.177 22.708 10.3997 22.4854C10.6224 22.2626 10.6224 21.9035 10.3997 21.6808L9.67686 20.9582C9.45438 20.7353 9.09526 20.7353 8.87237 20.9582C8.64989 21.1764 8.64989 21.5398 8.87237 21.7582L9.59541 22.4854Z" fill="#0E0F0F" fill-opacity="0.6"/>
<path d="M7.2364 24.7853C7.45911 25.008 7.818 25.008 8.04089 24.7853C8.25898 24.5626 8.25898 24.2034 8.04089 23.9808L7.31351 23.2534C7.09079 23.0353 6.73167 23.0353 6.50902 23.2534C6.2863 23.4761 6.2863 23.8352 6.50902 24.0579L7.2364 24.7853Z" fill="#0E0F0F" fill-opacity="0.6"/>
<path d="M12.0589 17.2389C12.2813 17.4616 12.6405 17.4616 12.8634 17.2389C13.0858 17.0162 13.0858 16.6571 12.8634 16.4344L11.3088 14.8801C11.0861 14.6572 10.727 14.6572 10.5043 14.8801C10.2816 15.1028 10.2816 15.4619 10.5043 15.6846L12.0589 17.2389Z" fill="#0E0F0F" fill-opacity="0.6"/>
</svg>
