<svg width="36" height="40" viewBox="0 0 36 40" fill="none" xmlns="http://www.w3.org/2000/svg">
<g clip-path="url(#clip0_1499_1282)">
<path d="M32.259 22.0842C31.7236 21.7492 31.1378 21.4973 30.51 21.3556C30.5131 21.2621 30.5164 21.1686 30.5164 21.0739C30.5164 16.6252 27.2818 13.0184 23.2916 13.0184C22.9074 13.0184 22.5304 13.0527 22.1621 13.1173C21.383 8.77336 17.9444 5.5 13.8191 5.5C9.11967 5.5 5.30992 9.74776 5.30992 14.9877C5.30992 16.2125 5.52437 17.3799 5.90349 18.4548C5.919 18.5004 5.92994 18.5471 5.94628 18.5927C4.93128 18.8504 3.99824 19.3477 3.19563 20.0263C3.13124 20.0807 3.07115 20.1406 3.00846 20.1972C2.92083 20.2764 2.83168 20.3532 2.74753 20.4369C2.63009 20.5536 2.51846 20.6771 2.4084 20.8019C2.38092 20.8332 2.35125 20.8618 2.32405 20.8936C2.21426 21.022 2.11124 21.1569 2.00946 21.2928C1.98334 21.3277 1.95497 21.3604 1.92934 21.3958C1.85325 21.5012 1.78353 21.6123 1.7123 21.7219C1.66424 21.7958 1.61318 21.8672 1.56724 21.9431C1.5347 21.997 1.5064 22.0541 1.47489 22.1089C0.754923 23.3609 0.333008 24.8462 0.333008 26.4444C0.333008 30.8932 3.56757 34.5 7.55772 34.5C11.5477 34.5 26.4941 34.5 29.3927 34.5C32.6734 34.5 35.333 31.5346 35.333 27.8766C35.3331 25.3792 34.0901 23.2117 32.259 22.0842Z" fill="#6A6A6A"/>
</g>
<defs>
<clipPath id="clip0_1499_1282">
<rect width="35" height="40" fill="white" transform="translate(0.333008)"/>
</clipPath>
</defs>
</svg>
