<svg width="20" height="18" viewBox="0 0 20 18" fill="none" xmlns="http://www.w3.org/2000/svg">
<path d="M9.99992 14.1868C9.99992 14.1868 15.8045 9.77277 15.8045 5.22411C15.8045 2.34352 13.2008 0 9.99992 0C6.79937 0 4.19531 2.34352 4.19531 5.22415C4.19531 9.77277 9.99992 14.1868 9.99992 14.1868ZM9.99992 3.11643C11.2934 3.11643 12.3418 4.05998 12.3418 5.22415C12.3418 6.38817 11.2934 7.33177 9.99992 7.33177C8.70656 7.33177 7.65813 6.38817 7.65813 5.22415C7.65813 4.05998 8.70656 3.11643 9.99992 3.11643Z" fill="#6A6A6A"/>
<path d="M17.1591 13.3206C17.0566 13.1089 16.9106 12.9048 16.7262 12.7158C16.4257 12.4108 16.0564 12.1602 15.5645 11.927C15.2009 11.7552 14.7979 11.6121 14.3339 11.49C14.2999 11.481 14.2654 11.473 14.2312 11.4645C14.1981 11.4547 14.1641 11.4474 14.1323 11.4341C14.1416 11.4382 14.1505 11.4426 14.1598 11.4467C14.1497 11.4443 14.1397 11.4416 14.1296 11.4392C14.1941 11.4679 14.2581 11.4971 14.3214 11.527C14.7462 11.7276 15.1026 11.9349 15.409 12.1591C15.7946 12.4376 16.0977 12.7422 16.2841 13.0383C16.5125 13.3959 16.5876 13.7591 16.5026 14.0835C16.43 14.3779 16.2403 14.6491 15.9185 14.9163C15.2581 15.4503 14.2834 15.7373 13.7624 15.8606C13.1129 16.0163 12.4053 16.1169 11.5967 16.1682C11.0456 16.1999 10.5556 16.2042 10.149 16.2042H9.85082C9.44402 16.2042 8.95406 16.1999 8.40016 16.1681C7.59434 16.117 6.88695 16.0163 6.23848 15.8609C5.71633 15.7373 4.74141 15.4502 4.07734 14.913C3.75938 14.6492 3.56969 14.378 3.49844 14.0885C3.41223 13.7588 3.4873 13.3956 3.71434 13.0401C3.90203 12.7421 4.2052 12.4375 4.58852 12.1607C4.89734 11.9346 5.25379 11.7274 5.67875 11.5266C5.72484 11.5049 5.77152 11.4839 5.8182 11.4629C5.83594 11.4566 5.85328 11.4495 5.87176 11.4447C5.86168 11.447 5.85191 11.4496 5.84215 11.4519C5.85145 11.4476 5.86063 11.4433 5.87008 11.4391C5.80203 11.4554 5.73441 11.4721 5.66711 11.4896C5.20172 11.6121 4.79891 11.755 4.43559 11.9268C3.94316 12.1602 3.57395 12.4108 3.27504 12.7144C3.08918 12.9047 2.94301 13.1088 2.84 13.3217C2.72508 13.5578 2.66207 13.8177 2.65766 14.0755C2.65184 14.3312 2.70523 14.6008 2.81254 14.8562C2.90789 15.0853 3.04828 15.3138 3.22711 15.5324C3.52879 15.8937 3.91223 16.2173 4.39855 16.521C4.79602 16.7678 5.21992 16.9794 5.69309 17.1674C7.50402 17.8788 9.16754 17.9944 9.99988 17.9998C10.8321 17.9944 12.4956 17.8788 14.3048 17.168C14.7797 16.9794 15.2037 16.7678 15.6002 16.5216C16.0875 16.2173 16.471 15.8936 16.77 15.5354C16.9513 15.3138 17.0917 15.0853 17.1875 14.8554C17.2942 14.6008 17.3478 14.3311 17.342 14.0736C17.3376 13.8177 17.2745 13.5578 17.1591 13.3206Z" fill="#6A6A6A"/>
</svg>
