<svg width="20" height="17" viewBox="0 0 20 17" fill="none" xmlns="http://www.w3.org/2000/svg">
<rect width="20" height="17" fill="white"/>
<path d="M9.9998 13.3986C9.9998 13.3986 15.8044 9.22984 15.8044 4.93388C15.8044 2.21332 13.2007 0 9.9998 0C6.79925 0 4.19519 2.21332 4.19519 4.93392C4.19519 9.22984 9.9998 13.3986 9.9998 13.3986ZM9.9998 2.94329C11.2933 2.94329 12.3417 3.83443 12.3417 4.93392C12.3417 6.03327 11.2933 6.92445 9.9998 6.92445C8.70644 6.92445 7.658 6.03327 7.658 4.93392C7.658 3.83443 8.70644 2.94329 9.9998 2.94329Z" fill="#0E0F0F" fill-opacity="0.6"/>
<path d="M17.1592 12.5805C17.0568 12.3805 16.9107 12.1878 16.7263 12.0093C16.4259 11.7212 16.0566 11.4845 15.5647 11.2643C15.201 11.1021 14.7981 10.9669 14.334 10.8516C14.3 10.8432 14.2655 10.8355 14.2313 10.8275C14.1982 10.8183 14.1642 10.8114 14.1325 10.7988C14.1418 10.8027 14.1506 10.8069 14.1599 10.8107C14.1498 10.8084 14.1398 10.8059 14.1297 10.8036C14.1943 10.8307 14.2582 10.8584 14.3215 10.8865C14.7463 11.076 15.1027 11.2718 15.4091 11.4835C15.7947 11.7465 16.0978 12.0342 16.2842 12.3139C16.5126 12.6516 16.5877 12.9947 16.5027 13.301C16.4301 13.5791 16.2404 13.8352 15.9186 14.0876C15.2582 14.5919 14.2835 14.863 13.7625 14.9794C13.113 15.1265 12.4054 15.2215 11.5968 15.2699C11.0457 15.2999 10.5557 15.3039 10.1491 15.3039H9.85094C9.44415 15.3039 8.95419 15.2999 8.40028 15.2698C7.59446 15.2216 6.88708 15.1265 6.2386 14.9797C5.71645 14.863 4.74153 14.5918 4.07747 14.0845C3.7595 13.8353 3.56981 13.5792 3.49856 13.3058C3.41235 12.9944 3.48743 12.6513 3.71446 12.3156C3.90215 12.0342 4.20532 11.7465 4.58864 11.485C4.89747 11.2715 5.25391 11.0758 5.67887 10.8862C5.72497 10.8657 5.77165 10.8459 5.81833 10.826C5.83606 10.8201 5.8534 10.8133 5.87188 10.8088C5.8618 10.811 5.85204 10.8134 5.84227 10.8157C5.85157 10.8116 5.86075 10.8075 5.8702 10.8036C5.80215 10.8189 5.73454 10.8347 5.66723 10.8512C5.20184 10.9669 4.79903 11.1019 4.43571 11.2642C3.94329 11.4845 3.57407 11.7212 3.27516 12.008C3.0893 12.1877 2.94313 12.3805 2.84012 12.5815C2.7252 12.8045 2.66219 13.05 2.65778 13.2935C2.65196 13.535 2.70536 13.7896 2.81266 14.0308C2.90801 14.2471 3.0484 14.463 3.22723 14.6694C3.52891 15.0107 3.91235 15.3162 4.39868 15.6032C4.79614 15.8362 5.22004 16.0361 5.69321 16.2136C7.50415 16.8855 9.16766 16.9947 10 16.9997C10.8322 16.9947 12.4957 16.8855 14.305 16.2142C14.7798 16.0361 15.2038 15.8362 15.6003 15.6037C16.0877 15.3162 16.4711 15.0105 16.7702 14.6723C16.9515 14.463 17.0918 14.2471 17.1877 14.03C17.2943 13.7896 17.3479 13.5348 17.3421 13.2917C17.3377 13.05 17.2747 12.8045 17.1592 12.5805Z" fill="#0E0F0F" fill-opacity="0.6"/>
</svg>
