<svg width="30" height="30" viewBox="0 0 30 30" fill="none" xmlns="http://www.w3.org/2000/svg">
<g clip-path="url(#clip0_894_939)">
<path d="M24.8122 6.76316C24.8122 6.76316 24.8122 6.76316 24.8124 6.7634L24.8092 6.75977L24.8122 6.76293L24.8092 6.75977L24.8122 6.76316C24.8122 6.76316 24.8122 6.76316 24.8124 6.7634L24.8122 6.76316Z" fill="#4B4B4B"/>
<path d="M27.8416 12.9976L27.8408 12.9971C27.7219 12.96 27.6025 12.9301 27.483 12.9077H27.4821C27.1419 12.8457 26.5686 12.7834 26.0808 12.7381C26.109 11.9816 26.1307 11.3783 26.1376 11.0029L26.138 11.0015L26.1387 10.997C26.1864 10.7305 26.212 10.4598 26.212 10.1851C26.212 10.0004 26.201 9.81479 26.1768 9.62822V9.62553V9.6141L26.1754 9.60285C26.0618 8.72465 25.6924 7.87188 25.0983 7.10734C25.0108 6.99449 24.9138 6.87918 24.8138 6.76516L24.8122 6.76334C23.3592 5.14492 20.9072 4.0058 18.0554 3.5258C17.8505 3.06643 17.4632 2.69447 16.9593 2.43607C16.42 2.1598 15.7471 2.00805 15.0019 2.00781C14.106 2.00875 13.2622 2.23785 12.6682 2.66354C12.3388 2.9002 12.0957 3.19451 11.9479 3.52504C10.3656 3.78783 8.89553 4.25746 7.64701 4.91318C6.65361 5.43115 5.82346 6.05535 5.19111 6.76369C4.426 7.61857 3.95795 8.58994 3.82904 9.59904H3.82881C3.82881 9.59975 3.82881 9.60045 3.82857 9.60133C3.82834 9.60203 3.82834 9.60244 3.82834 9.60315C3.79904 9.79908 3.78809 9.99297 3.78809 10.185C3.78809 10.4496 3.81328 10.7135 3.85852 10.9735V10.9742C3.86836 11.3434 3.89057 11.9618 3.92215 12.7377C3.43506 12.7826 2.86148 12.8424 2.51678 12.9078C2.39754 12.93 2.2783 12.9599 2.15924 12.997L2.15836 12.9975C0.908906 13.3997 0.00410156 14.5973 0 15.8337C0 15.906 0.00316406 15.9788 0.00984375 16.0522L0.0205664 16.1655C0.0494531 16.5922 0.141855 16.9682 0.320918 17.2942C0.590566 17.7872 1.05217 18.149 1.71914 18.4074C2.35863 18.656 3.19494 18.819 4.27576 18.9332C4.34736 19.8144 4.43092 20.6871 4.52455 21.4962C4.67197 22.7658 5.10498 23.8635 5.77313 24.7454L5.77248 24.7445C6.26936 25.408 6.88822 25.9468 7.57606 26.3755L7.57676 26.376C8.61018 27.0132 9.79898 27.4128 11.059 27.6586C12.3196 27.9006 13.6534 27.9923 15.0019 27.9923C16.1946 27.9923 17.3825 27.9218 18.5176 27.7332C20.2168 27.4485 21.812 26.914 23.0874 25.9104C23.7235 25.408 24.2744 24.785 24.6841 24.0455C25.0972 23.3025 25.3641 22.4488 25.4756 21.4966C25.5692 20.6862 25.6499 19.8135 25.7241 18.9324C27.1808 18.7782 28.1944 18.5374 28.8818 18.1135C29.2361 17.8942 29.5025 17.6221 29.6822 17.2943C29.8621 16.9667 29.9552 16.5893 29.9836 16.1604L29.9907 16.0476H29.9905C29.997 15.9762 30.0001 15.9045 30.0001 15.8335C29.9959 14.597 29.0913 13.3993 27.8416 12.9976ZM4.15055 13.9534C4.29475 13.9395 4.42154 13.9287 4.51998 13.9182L4.61496 15.2624C4.5692 15.259 4.41082 15.2448 4.21377 15.2271C3.80936 15.1956 3.22523 15.1497 3.01764 15.1461C2.89793 15.1461 2.78191 15.139 2.68324 15.1461C2.53564 15.1569 2.42297 15.1956 2.40539 15.3361C2.40199 15.3713 2.40539 15.4137 2.41254 15.4663C2.46176 15.7549 2.93666 16.2474 4.26674 16.2017C4.33354 16.2017 4.40379 16.1982 4.47428 16.1911C4.53768 16.1875 4.60799 16.1806 4.67848 16.1735L4.79109 17.75C4.64326 17.7358 4.49906 17.7218 4.36535 17.7077C1.12459 17.3593 1.29697 16.6345 1.23375 15.9449C1.17744 15.2589 1.72975 14.4248 2.53564 14.1715C2.6025 14.1504 2.6693 14.1328 2.73955 14.1186C3.05965 14.0624 3.6825 13.9955 4.15055 13.9534ZM21.4055 24.7308C20.6351 25.2057 19.6673 25.5438 18.5731 25.7582C17.4754 25.9695 16.2579 26.0574 15.0018 26.0574C13.8828 26.0574 12.7956 25.9905 11.7998 25.8251C10.2974 25.5788 9.01676 25.1109 8.11248 24.3895C7.65838 24.0306 7.289 23.612 7.0077 23.1053C6.72961 22.5985 6.5325 22.0039 6.44812 21.2722C6.19494 19.0941 6.02607 16.4024 5.92394 14.263C5.90977 13.9744 5.89576 13.6929 5.88527 13.4256C8.00695 14.6148 11.353 15.3258 15.0019 15.3258C18.6507 15.3258 21.9896 14.6148 24.115 13.4256C24.0164 15.6668 23.8406 18.7983 23.5519 21.2721C23.4393 22.2467 23.1297 22.982 22.6829 23.5836C22.345 24.0341 21.9193 24.4106 21.4055 24.7308ZM24.2734 11.6312C24.245 11.6557 24.2135 11.6804 24.1819 11.7051C22.514 13.0175 19.027 13.9182 15.0019 13.9182C10.9697 13.9182 7.48266 13.0139 5.81824 11.7015C5.78666 11.677 5.75853 11.6557 5.73035 11.6313C5.70586 11.582 5.68113 11.5292 5.6601 11.48C5.52645 11.1913 5.43832 10.8924 5.39959 10.5862C5.39619 10.5756 5.39619 10.5617 5.39619 10.5475C5.37855 10.4278 5.37146 10.3081 5.37146 10.1852C5.37146 10.0231 5.38564 9.86131 5.41014 9.70316C5.5193 9.03092 5.85346 8.39418 6.37072 7.82061C6.8775 7.25412 7.56 6.74395 8.3833 6.31481C9.44941 5.75518 10.7479 5.32943 12.1905 5.08662C12.3102 5.29076 12.472 5.47732 12.676 5.63916V6.69109L13.2988 6.97264C13.5487 7.08525 13.8266 7.17314 14.1258 7.22945C14.4212 7.28916 14.7309 7.32098 15.0441 7.32098C15.3574 7.32098 15.6669 7.28916 15.9625 7.23309C16.2615 7.17309 16.5396 7.0852 16.7929 6.97258L17.412 6.69104V5.56516C17.5775 5.42096 17.7112 5.25912 17.8133 5.08656C20.3641 5.5157 22.4648 6.5152 23.633 7.82055C23.7067 7.90504 23.7806 7.99293 23.8475 8.0773C24.2416 8.58408 24.4985 9.13293 24.5866 9.7065C24.6147 9.86488 24.6287 10.023 24.6287 10.1851C24.6287 10.308 24.6216 10.4277 24.6076 10.5474C24.6042 10.5616 24.6042 10.5756 24.6042 10.5861C24.5619 10.8923 24.474 11.1879 24.3437 11.4799C24.3226 11.5291 24.2978 11.582 24.2734 11.6312ZM16.3564 5.37859V6.00848C16.1806 6.08945 15.9801 6.15268 15.7583 6.19498C15.5367 6.24057 15.2974 6.26523 15.044 6.26523C14.7943 6.26523 14.5515 6.24051 14.3299 6.19498C14.1115 6.15268 13.9076 6.08945 13.7316 6.00848V5.40332C14.1046 5.50539 14.5375 5.56516 15.0019 5.56516C15.5014 5.5617 15.9625 5.4949 16.3564 5.37859ZM16.5042 4.92104C16.4479 4.95631 16.3845 4.98789 16.3177 5.01971C16.2932 5.03025 16.2685 5.03734 16.2439 5.04443C15.8955 5.14996 15.4628 5.21313 15.0018 5.21313C14.5056 5.21313 14.0446 5.13941 13.6823 5.01971C13.6121 4.99152 13.5486 4.95631 13.4889 4.92104C13.1932 4.74525 13.0137 4.51316 13.0137 4.26326V4.25963C13.0137 4.03809 13.1511 3.83389 13.3868 3.6652C13.4747 3.6018 13.5731 3.54555 13.6857 3.49633C14.0341 3.33795 14.4951 3.23934 15.0018 3.23934C15.5086 3.23934 15.9696 3.33795 16.3177 3.4927L16.3213 3.49633C16.6731 3.65816 16.9123 3.8834 16.9723 4.13652C16.9794 4.17543 16.9862 4.21756 16.9862 4.25969C16.9862 4.51316 16.8034 4.74525 16.5042 4.92104ZM25.3219 16.1736C25.3921 16.1807 25.4626 16.1875 25.5295 16.1912C25.5997 16.1983 25.6666 16.2017 25.7334 16.2017C27.0671 16.2475 27.5384 15.7549 27.5912 15.4663C27.5984 15.4137 27.5984 15.3713 27.5948 15.3361C27.5772 15.1956 27.4646 15.157 27.3168 15.1462C27.2183 15.1391 27.1021 15.1462 26.9826 15.1462C26.775 15.1498 26.1943 15.1956 25.7897 15.2272C25.5892 15.2448 25.4307 15.259 25.385 15.2625L25.48 13.9182C25.5821 13.9288 25.7123 13.9395 25.8531 13.9535C26.321 13.9956 26.944 14.0624 27.2605 14.1187C27.331 14.1329 27.3978 14.1505 27.4646 14.1716C28.2703 14.4249 28.8263 15.259 28.7665 15.945C28.7031 16.6346 28.8755 17.3595 25.6384 17.7078C25.5013 17.722 25.3605 17.736 25.2093 17.7501L25.3219 16.1736Z" fill="#4B4B4B"/>
</g>
<defs>
<clipPath id="clip0_894_939">
<rect width="30" height="30" fill="white"/>
</clipPath>
</defs>
</svg>
