<svg width="40" height="40" viewBox="0 0 40 40" fill="none" xmlns="http://www.w3.org/2000/svg">
<path d="M19.1813 32.1022L19.1802 32.1017V32.1019C19.1776 32.1008 19.1695 32.0974 19.1695 32.0974C19.1695 32.0974 18.0433 34.5054 18.7602 36.1647C19.2074 37.2003 20.4188 37.76 21.4516 37.3813C22.4841 37.0025 22.9472 35.8289 22.4998 34.7933C21.8013 33.1758 19.3074 32.1531 19.1813 32.1022Z" fill="#6A6A6A"/>
<path d="M10.982 27.8725L10.9808 27.8719V27.8722C10.9782 27.8712 10.9701 27.8677 10.9701 27.8677C10.9701 27.8677 9.84423 30.2757 10.5609 31.935C11.0081 32.9703 12.2194 33.53 13.2522 33.1514C14.285 32.7727 14.7478 31.5991 14.3007 30.5636C13.6022 28.9462 11.1083 27.9235 10.982 27.8725Z" fill="#6A6A6A"/>
<path d="M26.9138 27.6809L26.9126 27.6803C26.91 27.6793 26.9018 27.6761 26.9018 27.6761C26.9018 27.6761 25.776 30.0841 26.4924 31.7435C26.9398 32.7788 28.1511 33.3387 29.184 32.9598C30.2168 32.5811 30.6796 31.4076 30.2322 30.372C29.5335 28.7546 27.0401 27.7319 26.9138 27.6809Z" fill="#6A6A6A"/>
<path d="M34.4589 16.2218C33.9146 15.9361 33.3174 15.7219 32.677 15.6015C32.6801 15.5249 32.6834 15.4482 32.6834 15.3709C32.6834 11.6944 29.4487 8.71364 25.4586 8.71364C25.0744 8.71364 24.6973 8.74194 24.3293 8.79533C23.5499 5.20531 20.1113 2.50006 15.9861 2.50006C11.2866 2.50006 7.47703 6.01065 7.47703 10.341C7.47703 11.3518 7.69062 12.3151 8.06882 13.2022C8.0847 13.2411 8.09627 13.2813 8.11289 13.32C6.89867 13.5752 5.80153 14.1125 4.90521 14.8524C4.83977 14.9062 4.77946 14.9646 4.71633 15.0204C4.63806 15.0901 4.55749 15.1577 4.48271 15.2303C4.41313 15.2979 4.3491 15.3699 4.28278 15.4401C4.21757 15.5087 4.15028 15.5753 4.08834 15.6463C4.04457 15.6967 4.0054 15.7501 3.96341 15.8017C3.88284 15.8997 3.80175 15.9972 3.72727 16.0992C3.72178 16.1069 3.71711 16.1149 3.71132 16.1226C2.94742 17.1782 2.5 18.4447 2.5 19.8089C2.5 23.4857 5.73469 26.4662 9.72474 26.4662C13.7148 26.4662 28.6611 26.4662 31.5596 26.4662C34.8406 26.4662 37.5 24.0157 37.5 20.9924C37.4999 18.9409 36.2718 17.1583 34.4589 16.2218Z" fill="#6A6A6A"/>
</svg>
