<svg width="29" height="29" viewBox="0 0 29 29" fill="none" xmlns="http://www.w3.org/2000/svg">
<g clip-path="url(#clip0_1118_379)">
<path d="M22.7246 19.7613C21.9692 19.0054 20.7332 19.0398 19.8061 19.7613L18.3641 18.3183C22.1066 14.2643 21.8662 7.97706 17.8147 4.23223C13.7632 0.4874 7.51417 0.762249 3.77165 4.81629C0.0291274 8.87033 0.303808 15.1575 4.32101 18.9024C8.16654 22.4754 14.1065 22.441 17.9177 18.8336L19.3598 20.2766C19.0508 20.6545 18.8791 21.1355 18.8104 21.6165C18.7417 22.2006 18.9478 22.7846 19.3598 23.1969L24.201 28.0411C24.5787 28.3847 25.0594 28.5908 25.5744 28.5908C26.2611 28.5908 26.8792 28.316 27.3599 27.835C27.8062 27.4227 28.0809 26.8386 28.1152 26.2202C28.1839 25.6362 27.9779 25.0521 27.5659 24.6398L22.7246 19.7613ZM4.56136 18.1122C0.956174 14.5048 0.956174 8.62983 4.56136 4.98807C8.16654 1.34631 14.0378 1.38066 17.6774 4.98807C21.3169 8.59548 21.2825 14.4704 17.6774 18.1122C15.9263 19.8643 13.5915 20.8263 11.1194 20.8263C8.68157 20.8263 6.31245 19.8643 4.56136 18.1122ZM26.8448 27.2853C26.1925 27.9381 25.1967 28.0411 24.6474 27.4914L19.8405 22.6815C19.5658 22.4067 19.4628 22.0288 19.4971 21.6509C19.5315 21.2042 19.7375 20.7919 20.0808 20.4827C20.4242 20.1392 20.9049 19.933 21.3855 19.8987C21.7289 19.8987 22.0379 20.0018 22.2783 20.2422L27.0852 25.0865C27.3598 25.3613 27.4629 25.7393 27.4285 26.1172C27.3598 26.5638 27.1882 26.9761 26.8448 27.2853Z" fill="#0E0F0F" fill-opacity="0.6"/>
<path d="M22.9021 19.5852L22.9014 19.5845C22.0865 18.7691 20.814 18.7804 19.8327 19.4342L18.7087 18.3095C22.3758 14.1502 22.0786 7.83292 17.9844 4.04864C13.8305 0.209197 7.42332 0.492104 3.58796 4.64671C-0.24883 8.80286 0.0336974 15.2475 4.15054 19.0852L4.15084 19.0855C8.03356 22.6931 13.9991 22.7133 17.9109 19.1804L19.0308 20.3011C18.7715 20.6878 18.6259 21.14 18.5629 21.5812L18.5628 21.5812L18.5621 21.5873C18.4844 22.248 18.7173 22.9077 19.1829 23.3736L24.0242 28.2178L24.024 28.218L24.0328 28.2261C24.4516 28.607 24.9909 28.8408 25.5744 28.8408C26.3301 28.8408 27.0092 28.5378 27.5332 28.0152C28.0238 27.5603 28.3248 26.9197 28.3644 26.2417C28.4394 25.5839 28.2067 24.9276 27.7431 24.4636C27.743 24.4634 27.7428 24.4633 27.7427 24.4631L22.9021 19.5852ZM26.6775 27.0995L26.6773 27.0993L26.668 27.1086C26.0796 27.6973 25.2454 27.7361 24.8242 27.3147L20.0173 22.5048C19.8051 22.2925 19.7171 21.993 19.7461 21.6735L19.7464 21.67C19.7756 21.2896 19.9508 20.9363 20.2481 20.6685L20.2483 20.6688L20.2576 20.6595C20.5534 20.3635 20.9725 20.181 21.3944 20.1487C21.6812 20.1504 21.9185 20.2362 22.101 20.4186C22.1012 20.4187 22.1013 20.4188 22.1014 20.419L26.9077 25.2626L26.9083 25.2632C27.1189 25.4739 27.2072 25.7703 27.1802 26.087C27.1167 26.4917 26.9641 26.8414 26.6775 27.0995ZM4.73819 17.9354C1.23102 14.4261 1.22983 8.70876 4.73902 5.16395C8.24486 1.62254 13.9578 1.65328 17.5014 5.16563C21.0406 8.6736 21.01 14.39 17.5 17.9359C15.7961 19.6406 13.5252 20.5763 11.1194 20.5763C8.74709 20.5763 6.44182 19.6401 4.73819 17.9354Z" stroke="#0E0F0F" stroke-opacity="0.6" stroke-width="0.5"/>
</g>
<defs>
<clipPath id="clip0_1118_379">
<rect width="28" height="28" fill="white" transform="translate(0.677795 0.962891)"/>
</clipPath>
</defs>
</svg>
