<svg width="25" height="24" viewBox="0 0 25 24" fill="none" xmlns="http://www.w3.org/2000/svg">
<path d="M10.1435 19.4171C12.2593 19.4171 14.2348 18.7354 15.8408 17.5992L21.8822 23.5834C22.1626 23.8611 22.5322 24 22.9146 24C23.7431 24 24.3421 23.3688 24.3421 22.5608C24.3421 22.182 24.2146 21.8285 23.9342 21.5508L17.9311 15.5918C19.1929 13.9506 19.9449 11.9179 19.9449 9.70857C19.9449 4.36823 15.5349 0 10.1435 0C4.73934 0 0.342102 4.36823 0.342102 9.70857C0.342102 15.0489 4.73934 19.4171 10.1435 19.4171ZM10.1435 17.3214C5.92468 17.3214 2.45787 13.8748 2.45787 9.70857C2.45787 5.54235 5.92468 2.09574 10.1435 2.09574C14.3495 2.09574 17.8291 5.54235 17.8291 9.70857C17.8291 13.8748 14.3495 17.3214 10.1435 17.3214Z" fill="black" fill-opacity="0.6"/>
</svg>
