<svg width="41" height="40" viewBox="0 0 41 40" fill="none" xmlns="http://www.w3.org/2000/svg">
<path d="M34.9535 15.0549C34.2909 10.9015 30.7809 7.67237 26.4661 7.39754C25.9686 6.19787 25.2492 5.1188 24.3645 4.20241C24.3367 4.17339 24.3063 4.14705 24.2782 4.11832C24.1348 3.9733 23.9902 3.82983 23.8386 3.69327C23.6727 3.54342 23.5006 3.401 23.3256 3.26221C23.3066 3.24744 23.289 3.23089 23.2703 3.21604C23.0795 3.06731 22.8834 2.92614 22.6829 2.79107C22.6744 2.78557 22.6668 2.77919 22.6583 2.7734C22.4959 2.66467 22.3279 2.5641 22.1596 2.46465C22.1073 2.43392 22.0572 2.39971 22.0046 2.3695C21.9085 2.31532 21.809 2.26752 21.7113 2.21617C20.2432 1.44125 18.5788 0.999939 16.8293 0.999939C11.0877 0.999939 6.42137 5.62905 6.42137 11.3167C6.42137 11.8794 6.46175 12.4355 6.5566 12.9915C3.58779 14.5255 1.66699 17.5806 1.66699 21.0374C1.66699 23.5019 2.66414 25.7418 4.277 27.3839C4.29304 27.4004 4.30772 27.4184 4.32413 27.435C4.44146 27.5527 4.56613 27.6622 4.68998 27.7735C4.7631 27.8396 4.83278 27.9092 4.9083 27.973C4.98757 28.0399 5.07223 28.1003 5.1539 28.1646C5.27947 28.2635 5.40324 28.3646 5.53406 28.4572C5.57968 28.4894 5.62831 28.5171 5.67446 28.5485C5.84573 28.665 6.01806 28.7798 6.1978 28.8851C6.21563 28.8954 6.23466 28.9039 6.25249 28.914C7.13516 29.4225 8.11297 29.7939 9.16189 29.9887C9.16189 29.9873 9.16189 29.9861 9.16189 29.9847C9.16564 29.9856 9.16983 29.9867 9.17358 29.9873C9.16684 29.9269 9.16684 29.867 9.16684 29.8066C9.16684 28.3982 9.43371 27.0582 9.9052 25.815C9.94004 25.7255 9.96611 25.6329 10.0036 25.5442C10.0027 25.5439 10.0021 25.5439 10.0016 25.5436C10.003 25.5399 10.0042 25.5361 10.0056 25.5324C7.86176 25.1439 6.23196 23.2748 6.23196 21.0372C6.23196 18.8932 7.70614 17.0577 9.81627 16.5823L12.0704 16.0726L12.4427 15.9906L12.4419 15.9888L12.4538 15.9859L11.4258 13.5139C11.1351 12.8172 10.9862 12.0736 10.9862 11.3165C10.9862 8.1211 13.6102 5.52834 16.8293 5.52834C19.6087 5.52834 22.0165 7.47777 22.5641 10.171L22.9902 12.3013L25.1541 11.9665C25.3976 11.9262 25.6411 11.9062 25.8846 11.9062C28.4273 11.9062 30.4967 13.9628 30.4967 16.4816V16.6489L30.4156 18.5987L32.3498 18.9605C33.9457 19.262 35.102 20.6487 35.102 22.2563C35.102 24.1053 33.5804 25.6126 31.7071 25.6126H31.4543L31.36 25.6083C31.3605 25.6097 31.3608 25.6112 31.3614 25.6126H31.3488C31.8762 26.9123 32.1604 28.3259 32.1604 29.8066C32.1604 29.9136 32.1604 30.0208 32.1537 30.1281C36.3329 29.9002 39.667 26.4568 39.667 22.2563C39.6672 19.0946 37.7669 16.3009 34.9535 15.0549Z" fill="#6A6A6A"/>
<path d="M29.2095 26.1003L29.2198 26.0945L28.1975 24.3403L28.1949 24.3354H28.1946L28.1887 24.3252L26.8504 25.0906L25.9191 25.6139L26.4928 23.4931L26.4962 23.4807H26.4959L26.4991 23.4694L25.1011 23.0983L24.296 26.0752L24.1406 26.6406L24.1301 26.6466L22.5335 27.5596C22.2859 27.3579 22.0044 27.1958 21.6982 27.0824V26.4869V25.2559V25.2406L24.315 22.6487L23.3044 21.6476L23.3 21.6433L23.2915 21.6348L22.3541 22.5635L21.6982 23.2013V20.6132H19.6361V22.1364L19.6276 23.2048L18.0548 21.6464L18.0514 21.6433L18.0428 21.6348L17.0194 22.6487L19.1948 24.8036L19.6361 25.244V25.256V27.0825C19.3299 27.1958 19.0484 27.3579 18.8005 27.5597L18.2804 27.2623L17.1909 26.6388L16.2333 23.0983L14.8469 23.4662L14.8352 23.4694L15.177 24.7328L15.4079 25.6192L13.1456 24.3252L12.1143 26.0945L13.4514 26.8591L14.3757 27.3971L12.2225 27.9689H12.2222L12.2108 27.972L12.5854 29.357L15.5282 28.5759L16.1627 28.4098L16.1733 28.4159L17.343 29.085L17.7694 29.3288C17.7428 29.4843 17.727 29.6434 17.727 29.8067C17.727 29.9696 17.7428 30.1288 17.7694 30.2842L17.2491 30.582L16.1598 31.205L12.5854 30.2563L12.2108 31.641L13.491 31.9808L14.3769 32.2247L12.1143 33.5186L13.1366 35.2729L13.1394 35.2778L13.1456 35.2879L14.4851 34.522L15.4152 33.9992L14.8352 36.1438L16.2207 36.5117L16.2215 36.512L16.2333 36.5151L17.029 33.5725L17.1938 32.9726L17.2044 32.9665L18.8006 32.0536C19.0484 32.2553 19.33 32.4177 19.6361 32.5308V33.1263V34.3573V34.3726L17.0278 36.956L17.0194 36.9645L18.0428 37.9786L18.98 37.05L19.6361 36.4119V38.98V38.9882V39H21.6982V37.4657L21.7065 36.4084L23.2915 37.9786L24.3151 36.9644L22.1271 34.797L21.6983 34.3691V34.3572V32.5307C22.0044 32.4176 22.286 32.2552 22.5339 32.0534L23.054 32.3509L24.1433 32.9739L25.0979 36.5027V36.5033L25.1012 36.5149L26.4855 36.1473L26.4875 36.1467L26.4992 36.1436L26.1571 34.8789L25.9262 33.9938L28.1888 35.2877L29.2088 33.5378L29.214 33.5288L29.2199 33.5184L27.883 32.7538L26.9587 32.2157L29.1235 31.6408L28.7533 30.2727L28.7521 30.2675H28.7518L28.7489 30.2561L25.7725 31.0459L25.1717 31.2031L25.1612 31.197L23.9913 30.5282L23.5646 30.284C23.5915 30.1286 23.607 29.9695 23.607 29.8065C23.607 29.6433 23.5915 29.4841 23.5646 29.3287L24.085 29.0312L25.1746 28.4079L28.7489 29.3569L29.1235 27.972L27.8437 27.6322L26.9574 27.3883L29.2026 26.1043L29.2095 26.1003ZM20.6671 30.6007C20.2244 30.6007 19.8652 30.2453 19.8652 29.8067C19.8652 29.368 20.2244 29.0123 20.6671 29.0123C21.1099 29.0123 21.4687 29.368 21.4687 29.8067C21.4687 30.2453 21.1099 30.6007 20.6671 30.6007Z" fill="#6A6A6A"/>
</svg>
