<svg width="80" height="80" viewBox="0 0 80 80" fill="none" xmlns="http://www.w3.org/2000/svg">
<g clip-path="url(#clip0_1148_2998)">
<path d="M35.3806 70.0403H44.6186L40.0002 80.0004L35.3806 70.0403ZM57.9747 64.5091L64.5071 57.9771L68.2831 68.2851L57.9747 64.5091ZM15.4897 57.9747L22.0221 64.5071L11.7141 68.2831L15.4897 57.9747ZM13.8525 40.0002C13.8525 34.8285 15.3861 29.7729 18.2593 25.4728C21.1326 21.1726 25.2165 17.8211 29.9946 15.842C34.7726 13.8629 40.0303 13.3452 45.1026 14.3542C50.175 15.3632 54.8342 17.8537 58.4911 21.5107C62.148 25.1677 64.6383 29.827 65.6472 34.8994C66.656 39.9717 66.1381 45.2294 64.1589 50.0074C62.1796 54.7854 58.828 58.8691 54.5278 61.7423C50.2276 64.6154 45.1719 66.1489 40.0002 66.1487C33.0653 66.1485 26.4145 63.3935 21.5109 58.4897C16.6073 53.5859 13.8525 46.9351 13.8525 40.0002ZM70.0403 35.3814L80.0004 40.0002L70.0403 44.619V35.3814ZM0 40.0002L9.96005 35.3806V44.6186L0 40.0002ZM57.9779 15.4929L68.2859 11.7169L64.5103 22.0253L57.9779 15.4929ZM11.7169 11.7141L22.0253 15.4897L15.4929 22.0221L11.7169 11.7141ZM35.3814 9.96005L40.0002 0L44.6194 9.96005H35.3814Z" fill="#6A6A6A"/>
</g>
<defs>
<clipPath id="clip0_1148_2998">
<rect width="80" height="80" fill="white"/>
</clipPath>
</defs>
</svg>
