<svg width="70" height="70" viewBox="0 0 70 70" fill="none" xmlns="http://www.w3.org/2000/svg">
<g clip-path="url(#clip0_586_803)">
<path d="M30.958 61.2853H39.0413L35.0002 70.0004L30.958 61.2853ZM50.7279 56.4455L56.4437 50.73L59.7477 59.7495L50.7279 56.4455ZM13.5535 50.7279L19.2693 56.4437L10.2498 59.7477L13.5535 50.7279ZM12.1209 35.0002C12.1209 30.4749 13.4628 26.0513 15.9769 22.2887C18.491 18.5261 22.0644 15.5935 26.2453 13.8618C30.4261 12.1301 35.0265 11.677 39.4648 12.5599C43.9031 13.4428 47.9799 15.622 51.1797 18.8218C54.3795 22.0217 56.5585 26.0986 57.4413 30.5369C58.324 34.9753 57.8708 39.5757 56.139 43.7564C54.4072 47.9372 51.4745 51.5105 47.7118 54.0245C43.9491 56.5385 39.5254 57.8803 35.0002 57.8801C28.9322 57.88 23.1127 55.4693 18.8221 51.1785C14.5314 46.8877 12.1209 41.0682 12.1209 35.0002ZM61.2853 30.9587L70.0004 35.0002L61.2853 39.0416V30.9587ZM0 35.0002L8.71504 30.958V39.0413L0 35.0002ZM50.7307 13.5563L59.7502 10.2523L56.4465 19.2721L50.7307 13.5563ZM10.2523 10.2498L19.2721 13.5535L13.5563 19.2693L10.2523 10.2498ZM30.9587 8.71504L35.0002 0L39.042 8.71504H30.9587Z" fill="#0E0F0F" fill-opacity="0.6"/>
</g>
<defs>
<clipPath id="clip0_586_803">
<rect width="70" height="70" fill="white"/>
</clipPath>
</defs>
</svg>
