<svg width="29" height="29" viewBox="0 0 29 29" fill="none" xmlns="http://www.w3.org/2000/svg">
<g clip-path="url(#clip0_1118_331)">
<path d="M19.1601 -0.0371094H18.4807V4.04071H19.1601V-0.0371094Z" fill="#0E0F0F" fill-opacity="0.6"/>
<path d="M19.4101 -0.0371094V-0.287109H19.1601H18.4807H18.2307V-0.0371094V4.04071V4.29071H18.4807H19.1601H19.4101V4.04071V-0.0371094Z" stroke="#0E0F0F" stroke-opacity="0.6" stroke-width="0.5"/>
<path d="M29.0111 10.7147H25.2745V11.4561H29.0111V10.7147Z" fill="#0E0F0F" fill-opacity="0.6"/>
<path d="M29.2611 10.7147V10.4647H29.0111H25.2745H25.0245V10.7147V11.4561V11.7061H25.2745H29.0111H29.2611V11.4561V10.7147Z" stroke="#0E0F0F" stroke-opacity="0.6" stroke-width="0.5"/>
<path d="M12.3665 10.7147H8.62988V11.4561H12.3665V10.7147Z" fill="#0E0F0F" fill-opacity="0.6"/>
<path d="M12.6165 10.7147V10.4647H12.3665H8.62988H8.37988V10.7147V11.4561V11.7061H8.62988H12.3665H12.6165V11.4561V10.7147Z" stroke="#0E0F0F" stroke-opacity="0.6" stroke-width="0.5"/>
<path d="M23.6244 15.802L23.144 16.3262L25.7862 19.2097L26.2666 18.6855L23.6244 15.802Z" fill="#0E0F0F" fill-opacity="0.6"/>
<path d="M23.7933 15.6177L23.6244 15.4334L23.4555 15.6177L22.9751 16.1419L22.8063 16.3262L22.9751 16.5106L25.6174 19.3941L25.7862 19.5784L25.9551 19.3941L26.4355 18.8699L26.6044 18.6855L26.4355 18.5012L23.7933 15.6177Z" stroke="#0E0F0F" stroke-opacity="0.6" stroke-width="0.5"/>
<path d="M11.8546 2.95925L11.3743 3.48346L14.0165 6.36697L14.4968 5.84276L11.8546 2.95925Z" fill="#0E0F0F" fill-opacity="0.6"/>
<path d="M12.0235 2.77493L11.8546 2.59061L11.6857 2.77493L11.2054 3.29914L11.0365 3.48346L11.2054 3.66778L13.8476 6.55129L14.0165 6.73561L14.1854 6.55129L14.6657 6.02708L14.8346 5.84276L14.6657 5.65843L12.0235 2.77493Z" stroke="#0E0F0F" stroke-opacity="0.6" stroke-width="0.5"/>
<path d="M25.7863 2.95914L23.144 5.84265L23.6244 6.36686L26.2666 3.48335L25.7863 2.95914Z" fill="#0E0F0F" fill-opacity="0.6"/>
<path d="M25.9552 2.77482L25.7863 2.5905L25.6174 2.77482L22.9751 5.65833L22.8063 5.84265L22.9751 6.02697L23.4555 6.55118L23.6244 6.73551L23.7933 6.55118L26.4355 3.66767L26.6044 3.48335L26.4355 3.29903L25.9552 2.77482Z" stroke="#0E0F0F" stroke-opacity="0.6" stroke-width="0.5"/>
<path d="M18.6635 5.5277C16.0539 5.6368 13.9343 7.86496 13.7368 10.7069C13.6926 11.4129 13.7727 12.1217 13.9726 12.7949C14.3468 13.0085 14.7003 13.2627 15.0277 13.5537C15.0348 13.56 15.0368 13.5583 15.0321 13.5496C14.5157 12.6138 14.3085 11.5132 14.4449 10.431C14.7737 7.79364 16.9992 5.94653 19.4158 6.30527C21.8324 6.66404 23.525 9.09283 23.1962 11.7301C22.9517 13.6924 21.6321 15.2916 19.8694 15.7619C20.0922 15.9335 20.3023 16.124 20.4976 16.3317C23.1538 15.3223 24.5573 12.154 23.6323 9.25517C22.9004 6.96124 20.8882 5.45175 18.6635 5.5277Z" fill="#0E0F0F" fill-opacity="0.6"/>
<path d="M18.655 5.27784L18.6531 5.27792C15.8993 5.39305 13.6925 7.73827 13.4874 10.6895L13.4874 10.6895L13.4873 10.6913C13.4413 11.4264 13.5246 12.1646 13.733 12.8661L13.7616 12.9623L13.8487 13.0121C14.2076 13.2169 14.547 13.4609 14.8616 13.7405L15.0277 13.5537L14.8611 13.7401C14.8684 13.7466 14.8872 13.763 14.9144 13.7775C14.9269 13.7842 14.9567 13.799 14.9979 13.8049C15.0404 13.811 15.1285 13.8109 15.2043 13.7406C15.2753 13.6748 15.2839 13.5942 15.2846 13.5615C15.2853 13.5257 15.2782 13.4979 15.2745 13.4853C15.2667 13.4583 15.256 13.4381 15.2513 13.4294L15.2509 13.4288C14.7607 12.5403 14.563 11.4931 14.693 10.4622L14.693 10.4619C15.007 7.94305 17.1212 6.21738 19.3791 6.55256C21.6429 6.88864 23.2625 9.17727 22.9482 11.6992C22.7148 13.5714 21.4589 15.079 19.805 15.5203L19.3156 15.6509L19.7169 15.96C19.929 16.1233 20.1291 16.3048 20.3154 16.503L20.43 16.6248L20.5864 16.5654C23.3804 15.5036 24.8312 12.1901 23.8705 9.17917C23.1084 6.79066 21.0038 5.19766 18.655 5.27784Z" stroke="#0E0F0F" stroke-opacity="0.6" stroke-width="0.5"/>
<path d="M5.16097 27.9261L21.4702 27.9632H21.4739C23.4321 27.9115 24.9812 26.1371 24.9338 24C24.9335 23.9837 24.933 23.9674 24.9324 23.9511C24.864 21.836 23.2672 20.1634 21.3279 20.1756C21.3279 20.1756 21.1428 20.1763 21.0811 20.1778C20.8865 17.6742 18.9766 15.7445 16.6744 15.7252C16.2948 15.7253 15.9168 15.778 15.5494 15.882C14.0309 13.1693 10.7849 12.3136 8.29923 13.9708C6.88048 14.9166 5.95344 16.5372 5.79776 18.3435C5.65957 18.3287 5.5204 18.3213 5.38126 18.3213C4.04143 18.329 2.77619 18.9954 1.93709 20.1354C0.943975 21.5488 0.732767 23.4395 1.3856 25.0719C2.05369 26.721 3.51151 27.8231 5.16097 27.9261ZM2.46761 20.5986C3.17753 19.6342 4.24775 19.07 5.38126 19.0627C5.49907 19.0627 5.61684 19.0689 5.73114 19.0812L6.40604 19.1538L6.4737 18.4174C6.65551 16.2829 8.06094 14.5107 9.97057 14.0082C11.9096 13.4832 13.9358 14.3984 14.9678 16.2652L15.2294 16.7382L15.7195 16.5997C16.0313 16.5115 16.3522 16.4668 16.6743 16.4666C17.4588 16.463 18.2232 16.7371 18.8529 17.2477L18.8628 17.2557L18.873 17.2633C19.7707 17.9475 20.3341 19.0407 20.4035 20.2333L20.4518 20.9342L21.3278 20.917C22.902 20.9044 24.1992 22.2621 24.2534 23.9791C24.2839 24.8192 24.0011 25.637 23.4696 26.2457C22.9516 26.8519 22.231 27.2039 21.4715 27.2217L5.18492 27.1846C3.79522 27.0885 2.56974 26.157 2.00526 24.7678C1.45383 23.3896 1.63084 21.7934 2.46761 20.5986Z" fill="#0E0F0F" fill-opacity="0.6"/>
<path d="M5.15289 28.1761L5.14539 28.1756C3.391 28.066 1.8546 26.8954 1.15389 25.1658L1.15347 25.1648C0.469945 23.4555 0.689813 21.4757 1.73253 19.9917L1.7357 19.9872L1.73575 19.9872C2.61857 18.7878 3.95595 18.0795 5.37982 18.0713L5.38126 18.0713C5.44573 18.0713 5.51021 18.0728 5.57462 18.0758C5.79612 16.2981 6.73941 14.7102 8.16055 13.7628C10.7239 12.0539 14.0472 12.894 15.6703 15.5924C15.9999 15.5146 16.3365 15.4753 16.6744 15.4752L16.6765 15.4752V15.4752C19.0529 15.4951 21.0072 17.4233 21.3073 19.9257L21.3187 19.9256L21.3248 19.9256L21.3263 19.9256L21.3268 19.9256H21.3269L21.3269 19.9256L21.3277 20.1258C21.3286 20.1366 21.3295 20.1475 21.3303 20.1584L21.3278 20.1586L21.3279 20.1756M5.15289 28.1761L1.3856 25.0719C2.05369 26.721 3.51151 27.8231 5.16097 27.9261L21.4702 27.9632H21.4739C23.4321 27.9115 24.9812 26.1371 24.9338 24M5.15289 28.1761L5.16041 28.1761L21.4696 28.2132H21.4702H21.4739V28.2133L21.4805 28.2131C23.5963 28.1572 25.2337 26.2484 25.1837 23.9945M5.15289 28.1761L25.1837 23.9945M21.3279 20.1756L21.3278 20.1586L21.0811 20.1778C21.1428 20.1763 21.3279 20.1756 21.3279 20.1756ZM21.3279 20.1756C23.2672 20.1634 24.864 21.836 24.9324 23.9511M24.9324 23.9511C24.9328 23.9605 24.9331 23.9699 24.9333 23.9792C24.9335 23.9862 24.9337 23.9931 24.9338 24M24.9324 23.9511L25.1823 23.943C25.1823 23.9429 25.1823 23.9429 25.1823 23.9428M24.9324 23.9511L25.1823 23.9428M24.9338 24L25.1837 23.9945M24.9338 24L25.1838 23.9948C25.1838 23.9947 25.1837 23.9946 25.1837 23.9945M25.1837 23.9945C25.1834 23.977 25.1829 23.9597 25.1823 23.9428M25.1837 23.9945L25.1823 23.9428M5.7043 19.3298L5.70441 19.3298L6.3793 19.4024L6.63175 19.4295L6.65499 19.1767L6.72265 18.4403L6.72266 18.4403L6.7228 18.4387C6.89665 16.3975 8.23789 14.7227 10.0342 14.25L10.0359 14.2495C11.8543 13.7572 13.7678 14.6112 14.749 16.3862L14.749 16.3862L15.0106 16.8591L15.1065 17.0326L15.2973 16.9787L15.7875 16.8403L15.7875 16.8403C16.0774 16.7583 16.3754 16.7168 16.6744 16.7166L16.6754 16.7166C17.4001 16.7133 18.1089 16.9663 18.6954 17.4419L18.6967 17.443L18.7066 17.4509L18.7066 17.451L18.7133 17.4561L18.7214 17.4621C18.7218 17.4624 18.7222 17.4627 18.7225 17.4629C19.5579 18.1002 20.0885 19.1237 20.154 20.2479L20.1539 20.2479L20.1541 20.2505L20.2024 20.9514L20.2188 21.1888L20.4567 21.1841L21.3298 21.167C21.3302 21.167 21.3307 21.167 21.3312 21.167C22.7496 21.1564 23.953 22.3859 24.0036 23.987L24.0036 23.9881C24.0319 24.7676 23.7692 25.5225 23.2813 26.0812L23.2796 26.0833C22.8058 26.6377 22.1522 26.9548 21.4688 26.9717L5.194 26.9346C3.91189 26.8426 2.7681 25.9805 2.23712 24.6743C1.71704 23.3739 1.88492 21.8682 2.6707 20.7444C3.33675 19.8411 4.33375 19.3197 5.38207 19.3127C5.49096 19.3127 5.59949 19.3185 5.7043 19.3298Z" stroke="#0E0F0F" stroke-opacity="0.6" stroke-width="0.5"/>
</g>
<defs>
<clipPath id="clip0_1118_331">
<rect width="28" height="28" fill="white" transform="translate(0.0111084 0.962891)"/>
</clipPath>
</defs>
</svg>
